# xmcd
#
# Track frame offsets: 
#        150
#        20522
#        35060
#        48837
#        62577
#        76620
#        88540
#        100045
#        112365
#        122892
#        135290
#        147222
#        160782
#        173855
#        187727
#        199590
#        210512
#        225825
#        240645
#        250842
#
# Disc length: 3608 seconds
#
# Revision: 0
# Processed by: cddbd v1.5.2PL0 Copyright (c) Steve Scherf et al.
# Submitted via: ExactAudioCopyFreeDBPlugin 1.0
#
DISCID=f90e1614
DTITLE=Various Artist - Country Greats
DYEAR=1996
DGENRE=Country
TTITLE0=Lovesick Blues
TTITLE1=Cold, Cold Heart
TTITLE2=Your Cheatin' Heart
TTITLE3=Have You Ever Been So Lonely
TTITLE4=Blue Grass On Fire
TTITLE5=Bouquet Of Roses
TTITLE6=Jambalaya
TTITLE7=Half As Much
TTITLE8=I Can't Stop Loving You
TTITLE9=Kaw Liga
TTITLE10=Wabash Cannonball
TTITLE11=Lonesome Freight
TTITLE12=Take Me Home Country Roads
TTITLE13=By The Time I Get To Phoenix
TTITLE14=Crazy
TTITLE15=King Of The Road
TTITLE16=Ode To Billy Joe
TTITLE17=Rocky Mountain High
TTITLE18=Galveston
TTITLE19=In The Jailhouse Now
EXTD=
EXTT0=
EXTT1=
EXTT2=
EXTT3=
EXTT4=
EXTT5=
EXTT6=
EXTT7=
EXTT8=
EXTT9=
EXTT10=
EXTT11=
EXTT12=
EXTT13=
EXTT14=
EXTT15=
EXTT16=
EXTT17=
EXTT18=
EXTT19=
PLAYORDER=
